<svg width="20" height="20" viewBox="0 0 20 20" fill="none" xmlns="http://www.w3.org/2000/svg">
<circle cx="10" cy="10" r="9.5" stroke="#2BDA2B"/>
<path d="M14.4932 14.2017C14.1416 14.3481 13.7925 14.4824 13.4458 14.6045C13.104 14.7266 12.7476 14.8315 12.3765 14.9194C12.0054 15.0073 11.6147 15.0757 11.2046 15.1245C10.7944 15.1733 10.3477 15.1978 9.86426 15.1978C9.26855 15.1978 8.69482 15.1489 8.14307 15.0513C7.59619 14.9536 7.08594 14.8071 6.6123 14.6118C6.13867 14.4165 5.70898 14.1748 5.32324 13.8867C4.9375 13.5938 4.60547 13.2544 4.32715 12.8687C4.05371 12.4829 3.84131 12.0483 3.68994 11.5649C3.54346 11.0815 3.47021 10.5518 3.47021 9.97559C3.47021 9.39941 3.54346 8.86963 3.68994 8.38623C3.84131 7.90283 4.05371 7.46826 4.32715 7.08252C4.60547 6.69678 4.9375 6.35986 5.32324 6.07178C5.70898 5.77881 6.13867 5.53467 6.6123 5.33936C7.08594 5.14404 7.59619 4.99756 8.14307 4.8999C8.68994 4.80225 9.26367 4.75342 9.86426 4.75342C10.3477 4.75342 10.7944 4.77783 11.2046 4.82666C11.6147 4.87549 12.0054 4.94385 12.3765 5.03174C12.7476 5.11963 13.104 5.22461 13.4458 5.34668C13.7925 5.46387 14.1416 5.5957 14.4932 5.74219V6.84082C14.2148 6.66504 13.917 6.49902 13.5996 6.34277C13.2822 6.18652 12.938 6.0498 12.5669 5.93262C12.2007 5.81543 11.8076 5.72266 11.3877 5.6543C10.9678 5.58594 10.5186 5.55176 10.04 5.55176C9.07324 5.55176 8.23584 5.65674 7.52783 5.8667C6.81982 6.07666 6.23389 6.37451 5.77002 6.76025C5.31104 7.14111 4.96924 7.60498 4.74463 8.15186C4.5249 8.69385 4.41504 9.30176 4.41504 9.97559C4.41504 10.6494 4.5249 11.2573 4.74463 11.7993C4.96924 12.3413 5.31104 12.8052 5.77002 13.1909C6.23389 13.5718 6.81982 13.8672 7.52783 14.0771C8.23584 14.2822 9.07324 14.3848 10.04 14.3848C10.5186 14.3848 10.9702 14.3506 11.395 14.2822C11.8247 14.2139 12.2251 14.1211 12.5962 14.0039C12.9722 13.8867 13.3164 13.7524 13.6289 13.6011C13.9463 13.4448 14.2344 13.2812 14.4932 13.1104V14.2017Z" fill="#2BDA2B"/>
</svg>
