<svg width="30" height="21" viewBox="0 0 30 21" fill="none" xmlns="http://www.w3.org/2000/svg">
<line x1="12.5522" y1="20.8894" x2="21.5522" y2="2.7775" stroke="black"/>
<line x1="18.4412" y1="0.235294" x2="10.4412" y2="15.2353" stroke="black"/>
<line x1="10" y1="9.5" x2="24" y2="9.5" stroke="black"/>
<path d="M13.2715 14L1.61133 2.18359V14H0.390625V0.582031H1.73828L13.3984 12.4375V0.582031H14.5996V14H13.2715Z" fill="#FF0000"/>
<path d="M29.6875 16.2988C29.6875 16.8197 29.6191 17.2721 29.4824 17.6562C29.3457 18.0404 29.1536 18.3724 28.9062 18.6523C28.6654 18.9258 28.3724 19.1504 28.0273 19.3262C27.6888 19.4954 27.3145 19.6322 26.9043 19.7363C26.4941 19.834 26.0547 19.9023 25.5859 19.9414C25.1172 19.9805 24.6322 20 24.1309 20H16.3867V6.58203H23.9551C24.3392 6.58203 24.7233 6.59831 25.1074 6.63086C25.4915 6.66341 25.8594 6.72526 26.2109 6.81641C26.569 6.90104 26.8978 7.02148 27.1973 7.17773C27.5033 7.33398 27.7669 7.53906 27.9883 7.79297C28.2161 8.04688 28.3919 8.35286 28.5156 8.71094C28.6458 9.06901 28.7109 9.49219 28.7109 9.98047C28.7109 10.4167 28.6556 10.7943 28.5449 11.1133C28.4408 11.4323 28.278 11.7057 28.0566 11.9336C27.8418 12.1615 27.5651 12.3503 27.2266 12.5C26.888 12.6432 26.4909 12.7572 26.0352 12.8418C26.6862 12.8874 27.2428 12.998 27.7051 13.1738C28.1673 13.3496 28.5449 13.584 28.8379 13.877C29.1309 14.1699 29.3457 14.5215 29.4824 14.9316C29.6191 15.3353 29.6875 15.791 29.6875 16.2988ZM27.5684 10C27.5684 9.8112 27.5553 9.6224 27.5293 9.43359C27.5033 9.24479 27.4447 9.06576 27.3535 8.89648C27.2624 8.7207 27.1289 8.55794 26.9531 8.4082C26.7839 8.25846 26.5495 8.13151 26.25 8.02734C25.9505 7.91667 25.5794 7.83203 25.1367 7.77344C24.7005 7.70833 24.1732 7.67578 23.5547 7.67578H17.6074V12.3633H23.5547C24.4336 12.3633 25.1367 12.3014 25.6641 12.1777C26.1914 12.0475 26.5951 11.875 26.875 11.6602C27.1615 11.4453 27.347 11.1947 27.4316 10.9082C27.5228 10.6217 27.5684 10.319 27.5684 10ZM28.4082 16.2793C28.4082 15.7715 28.3203 15.3385 28.1445 14.9805C27.9688 14.6224 27.6986 14.3294 27.334 14.1016C26.9694 13.8737 26.5007 13.7077 25.9277 13.6035C25.3548 13.4928 24.6745 13.4375 23.8867 13.4375H17.6074V18.8965H24.0527C24.8665 18.8965 25.5501 18.8509 26.1035 18.7598C26.6634 18.6621 27.1126 18.5091 27.4512 18.3008C27.7962 18.0859 28.0404 17.8125 28.1836 17.4805C28.3333 17.1484 28.4082 16.748 28.4082 16.2793Z" fill="#FF0000"/>
</svg>
