<svg width="30" height="22" viewBox="0 0 30 22" fill="none" xmlns="http://www.w3.org/2000/svg">
<line x1="12.5522" y1="21.8894" x2="21.5522" y2="3.7775" stroke="#0F1C3E"/>
<line x1="18.4412" y1="1.23529" x2="10.4412" y2="16.2353" stroke="#0F1C3E"/>
<line x1="10" y1="10.5" x2="24" y2="10.5" stroke="#0F1C3E"/>
<path d="M13.2715 15L1.61133 3.18359V15H0.390625V1.58203H1.73828L13.3984 13.4375V1.58203H14.5996V15H13.2715Z" fill="#FF0000"/>
<path d="M29.6875 17.2988C29.6875 17.8197 29.6191 18.2721 29.4824 18.6562C29.3457 19.0404 29.1536 19.3724 28.9062 19.6523C28.6654 19.9258 28.3724 20.1504 28.0273 20.3262C27.6888 20.4954 27.3145 20.6322 26.9043 20.7363C26.4941 20.834 26.0547 20.9023 25.5859 20.9414C25.1172 20.9805 24.6322 21 24.1309 21H16.3867V7.58203H23.9551C24.3392 7.58203 24.7233 7.59831 25.1074 7.63086C25.4915 7.66341 25.8594 7.72526 26.2109 7.81641C26.569 7.90104 26.8978 8.02148 27.1973 8.17773C27.5033 8.33398 27.7669 8.53906 27.9883 8.79297C28.2161 9.04688 28.3919 9.35286 28.5156 9.71094C28.6458 10.069 28.7109 10.4922 28.7109 10.9805C28.7109 11.4167 28.6556 11.7943 28.5449 12.1133C28.4408 12.4323 28.278 12.7057 28.0566 12.9336C27.8418 13.1615 27.5651 13.3503 27.2266 13.5C26.888 13.6432 26.4909 13.7572 26.0352 13.8418C26.6862 13.8874 27.2428 13.998 27.7051 14.1738C28.1673 14.3496 28.5449 14.584 28.8379 14.877C29.1309 15.1699 29.3457 15.5215 29.4824 15.9316C29.6191 16.3353 29.6875 16.791 29.6875 17.2988ZM27.5684 11C27.5684 10.8112 27.5553 10.6224 27.5293 10.4336C27.5033 10.2448 27.4447 10.0658 27.3535 9.89648C27.2624 9.7207 27.1289 9.55794 26.9531 9.4082C26.7839 9.25846 26.5495 9.13151 26.25 9.02734C25.9505 8.91667 25.5794 8.83203 25.1367 8.77344C24.7005 8.70833 24.1732 8.67578 23.5547 8.67578H17.6074V13.3633H23.5547C24.4336 13.3633 25.1367 13.3014 25.6641 13.1777C26.1914 13.0475 26.5951 12.875 26.875 12.6602C27.1615 12.4453 27.347 12.1947 27.4316 11.9082C27.5228 11.6217 27.5684 11.319 27.5684 11ZM28.4082 17.2793C28.4082 16.7715 28.3203 16.3385 28.1445 15.9805C27.9688 15.6224 27.6986 15.3294 27.334 15.1016C26.9694 14.8737 26.5007 14.7077 25.9277 14.6035C25.3548 14.4928 24.6745 14.4375 23.8867 14.4375H17.6074V19.8965H24.0527C24.8665 19.8965 25.5501 19.8509 26.1035 19.7598C26.6634 19.6621 27.1126 19.5091 27.4512 19.3008C27.7962 19.0859 28.0404 18.8125 28.1836 18.4805C28.3333 18.1484 28.4082 17.748 28.4082 17.2793Z" fill="#FF0000"/>
</svg>
