<svg width="30" height="30" viewBox="0 0 30 30" fill="none" xmlns="http://www.w3.org/2000/svg">
<rect x="0.5" y="0.5" width="29" height="29" stroke="#2BDA2B"/>
<path d="M17.6776 12.8939C17.6776 14.1929 16.4666 15.3378 14.852 15.3378C13.2374 15.3378 12.0264 14.1929 12.0264 12.8939C12.0264 11.595 13.2374 10.45 14.852 10.45C16.4666 10.45 17.6776 11.595 17.6776 12.8939Z" stroke="#2BDA2B" stroke-width="0.9"/>
<path d="M23.2462 13.0386C23.2462 13.938 22.4018 14.759 21.2395 14.759C20.0772 14.759 19.2327 13.938 19.2327 13.0386C19.2327 12.1392 20.0772 11.3182 21.2395 11.3182C22.4018 11.3182 23.2462 12.1392 23.2462 13.0386Z" stroke="#2BDA2B" stroke-width="0.9"/>
<path d="M10.7988 13.0386C10.7988 13.938 9.95436 14.759 8.79205 14.759C7.62975 14.759 6.78533 13.938 6.78533 13.0386C6.78533 12.1392 7.62975 11.3182 8.79205 11.3182C9.95436 11.3182 10.7988 12.1392 10.7988 13.0386Z" stroke="#2BDA2B" stroke-width="0.9"/>
<path d="M9.93862 18.537C7.64562 18.3923 4.69752 18.537 5.02508 18.3923L5.18887 16.9453L5.68021 15.9325L6.6629 15.0643L7.48183 14.7749" stroke="#2BDA2B" stroke-width="0.9"/>
<path d="M19.8588 18.6997C22.2222 18.5033 25 18.6997 25 18.6997L25 16.9444L24.423 15.7495L23.4431 15.068L22.7135 14.7739M12.2315 15.7495L11.4126 16.3656L10.7575 17.0891L10.2661 18.2466L9.93855 19.2595V20.9958H11.4126H13.2142H15.3433H17.8001H19.1103H19.9292V19.2595L19.7654 17.9572L19.4379 17.0891L18.7828 16.3656L17.9638 15.7495M12.2315 15.7495L13.3779 15.4974M12.2315 15.7495L11.5763 15.3527L11.085 15.068L10.2661 14.7739M17.9638 15.7495L16.6536 15.3527M17.9638 15.7495L18.4552 15.3527C19.1103 14.9186 19.4379 14.9195 19.4379 14.7748" stroke="#2BDA2B" stroke-width="0.9"/>
</svg>
