<svg width="45" height="24" viewBox="0 0 45 24" fill="none" xmlns="http://www.w3.org/2000/svg">
<g opacity="0.6">
<g filter="url(#filter0_i_164_99)">
<path d="M10.5098 22.7821C15.5929 21.2877 19.5234 20.128 20.8532 19.735L22.4181 19.2157L24.1283 18.5421L25.0722 18.1882L25.985 17.7746L26.8957 17.2705L27.6577 16.7699L28.1846 16.3954L28.6223 16.023L28.8553 15.8063L29.0883 15.5896L29.2902 15.3133L29.3696 14.8888L29.42 14.4952L29.35 14.0441L29.1929 13.6855L28.9785 13.4188L28.2501 12.8017L27.0763 12.2252L25.7241 11.6528L24.5538 11.2272L22.8164 10.7241L21.0499 10.2519L18.3857 9.55895L16.1676 8.8557L14.8196 8.46434L14.3396 8.29435L13.8893 8.12367L13.4086 7.92351L12.7418 7.39561L12.4962 7.06925L12.7229 6.58101L13.1903 6.20794L13.8362 5.83073L14.7504 5.47749L16.0802 5.08443L17.4398 4.69067L18.8595 4.32571L20.1914 4.02316L21.197 3.75836L22.3477 3.33926L23.0827 2.95998L23.3171 2.80362L23.4291 2.49916L23.335 2.29004L23.0023 2.05626L22.6115 1.8842L21.6231 1.60524L20.04 1.34008L17.9804 1.05577L14.6689 0.679735L17.9443 0.784928L19.7328 0.924588L21.0448 1.04511L22.0608 1.23286L23.1384 1.50975L23.6772 1.64819L24.1267 1.7887L24.5175 1.96076L24.7894 2.13558L25.0385 2.61279L25.0752 2.9138L25.0517 3.18602L24.7635 3.58513L24.3831 3.86562L23.3528 4.3423L22.144 4.82312L20.5196 5.34376L19.308 5.70389L18.5397 5.93301L18.0674 6.09489L17.6864 6.34521L17.4838 6.5914L17.4901 6.86293L17.6126 7.01102L17.8547 7.18653L18.2448 7.32842L18.8735 7.49496L19.6197 7.59841L20.3667 7.73203L22.2161 7.93065L24.6644 8.29651L27.6777 8.64926L31.2008 9.17132L34.5214 9.93957L37.2762 10.6907L39.679 11.6614L41.0631 12.3236L41.7887 12.8199L42.4576 13.4383L43.0062 13.9992L43.525 14.5607L43.9561 15.1846L44.3035 16.052L44.3811 16.835L44.337 17.5001L44.033 18.5033L43.7233 19.2652L43.0062 20.4228L42.5799 20.8838L41.7887 21.391L41.0631 21.7347L40.2505 21.8981L39.0005 22.1327L37.2762 22.1327L26.388 22.3234L10.5098 22.7821Z" fill="#8C8C8C"/>
</g>
<path d="M14.6689 0.679735L17.9804 1.05577L20.04 1.34008L21.6231 1.60524L22.6115 1.8842L23.0023 2.05626L23.335 2.29004L23.4291 2.49916L23.3171 2.80362L23.0827 2.95998L22.3477 3.33926L21.197 3.75836L20.1914 4.02316L18.8595 4.32571L17.4398 4.69067L16.0802 5.08443L14.7504 5.47749L13.8362 5.83073L13.1903 6.20794L12.7229 6.58101L12.4962 7.06925L12.7418 7.39561L13.4086 7.92351L13.8893 8.12367L14.3396 8.29435L14.8196 8.46434L16.1676 8.8557L18.3857 9.55895L21.0499 10.2519L22.8164 10.7241L24.5538 11.2272L25.7241 11.6528L27.0763 12.2252L28.2501 12.8017L28.9785 13.4188L29.1929 13.6855L29.35 14.0441L29.42 14.4952L29.3696 14.8888L29.2902 15.3133L29.0883 15.5896L28.8553 15.8063L28.6223 16.023L28.1846 16.3954L27.6577 16.7699L26.8957 17.2705L25.985 17.7746L25.0722 18.1882L24.1283 18.5421L22.4181 19.2157L20.8532 19.735C19.5234 20.128 15.5929 21.2877 10.5098 22.7821L26.388 22.3234M14.6689 0.679735C16.7062 0.85482 21.26 1.34198 20.8415 1.26112C20.7034 1.23444 22.5153 1.58456 23.1447 1.78128L23.9864 2.15419L24.2151 2.39038L24.3545 2.62864L24.3615 2.93034L24.1001 3.20808L23.5725 3.55236L22.807 3.90216L21.6847 4.26022L20.2089 4.77741L18.4635 5.2103L17.2221 5.57112L16.0998 5.92919L15.6586 6.15072L15.3357 6.33933L15.0922 6.5951L15.0474 6.73843L15.0502 6.85912L15.0537 7.00997L15.2695 7.33701L15.6901 7.50838L16.6791 7.81751L17.7256 8.03474L19.3696 8.35887L21.2826 8.73713L22.7751 8.94403L25.3459 9.45798L28.1871 10.0864L29.8644 10.5607L30.944 10.9281L32.806 11.6698L33.5295 12.0756L34.5843 12.6549L35.4019 13.2699L35.7665 13.5935L36.2556 14.1557L36.715 14.7186L37.027 15.3452L37.0375 15.7978L37.0459 16.1598L36.7639 16.8305L36.2143 17.5073L35.2801 18.2836L34.4013 18.8775L32.992 19.6951L31.5509 20.4227L29.7827 21.158C29.6949 21.2204 29.1767 21.4558 27.8063 21.8981L26.388 22.3234M14.6689 0.679735L17.9443 0.784928L19.7328 0.924588L21.0448 1.04511L22.0608 1.23286L23.1384 1.50975L23.6772 1.64819L24.1267 1.7887L24.5175 1.96076L24.7894 2.13558L25.0385 2.61279L25.0752 2.9138L25.0517 3.18602L24.7635 3.58513L24.3831 3.86562L23.3528 4.3423L22.144 4.82312L20.5196 5.34376L19.308 5.70389L18.5397 5.93301L18.0674 6.09489L17.6864 6.34521L17.4838 6.5914L17.4901 6.86293L17.6126 7.01102L17.8547 7.18653L18.2448 7.32842L18.8735 7.49496L19.6197 7.59841L20.3667 7.73203L22.2161 7.93065L24.6644 8.29651L27.6777 8.64926L31.2008 9.17132L34.5214 9.93957L37.2762 10.6907L39.679 11.6614L41.0631 12.3236L41.7887 12.8199L42.4576 13.4383L43.0062 13.9992L43.525 14.5607L43.9561 15.1846L44.3035 16.052L44.3811 16.835L44.337 17.5001L44.033 18.5033L43.7233 19.2652L43.0062 20.4228L42.5799 20.8838L41.7887 21.391L41.0631 21.7347L40.2505 21.8981L39.0005 22.1327L37.2762 22.1327L26.388 22.3234" stroke="white" stroke-width="0.15"/>
</g>
<path d="M5.05469 12.8281C4.99219 12.8438 4.9375 12.8672 4.89062 12.8984C4.84375 12.9245 4.79688 12.9583 4.75 13C4.70312 13.0365 4.65104 13.0807 4.59375 13.1328C4.54167 13.1849 4.47656 13.2448 4.39844 13.3125C4.38281 13.4167 4.375 13.5208 4.375 13.625C4.375 13.7344 4.38802 13.8229 4.41406 13.8906C4.4401 13.9531 4.46875 14.0078 4.5 14.0547C4.53125 14.0964 4.5599 14.138 4.58594 14.1797C4.61198 14.2161 4.625 14.2604 4.625 14.3125C4.625 14.4271 4.65625 14.5469 4.71875 14.6719C4.78646 14.7969 4.86719 14.9193 4.96094 15.0391C5.05469 15.1536 5.15104 15.2656 5.25 15.375C5.34896 15.4792 5.4349 15.5703 5.50781 15.6484H5.53125C5.57812 15.6484 5.63021 15.6276 5.6875 15.5859C5.75 15.5443 5.8099 15.4948 5.86719 15.4375C5.92448 15.375 5.97135 15.3099 6.00781 15.2422C6.04948 15.1745 6.07031 15.1172 6.07031 15.0703C6.07031 15.0182 6.08854 14.9714 6.125 14.9297C6.16146 14.8828 6.20312 14.8385 6.25 14.7969C6.30208 14.75 6.35156 14.7083 6.39844 14.6719C6.45052 14.6302 6.48958 14.5859 6.51562 14.5391V14.2031C6.54688 14.1719 6.57552 14.1432 6.60156 14.1172C6.63281 14.0911 6.65885 14.0625 6.67969 14.0312C6.70052 14 6.71615 13.9635 6.72656 13.9219C6.73698 13.8802 6.74219 13.8255 6.74219 13.7578C6.74219 13.7161 6.73958 13.6797 6.73438 13.6484C6.73438 13.612 6.73438 13.5729 6.73438 13.5312C6.77083 13.474 6.80729 13.4193 6.84375 13.3672C6.88021 13.3099 6.91927 13.2552 6.96094 13.2031C7.00781 13.0938 7.00781 13.0156 6.96094 12.9688C6.91927 12.9219 6.85417 12.8906 6.76562 12.875C6.68229 12.8594 6.59115 12.8516 6.49219 12.8516C6.39323 12.8464 6.3125 12.8359 6.25 12.8203L6.15625 12.8047C6.09375 12.7943 6.02344 12.776 5.94531 12.75C5.86719 12.7188 5.79948 12.6432 5.74219 12.5234C5.67969 12.3984 5.65885 12.2891 5.67969 12.1953C5.70573 12.0964 5.7526 12.013 5.82031 11.9453C5.88802 11.8776 5.96875 11.8229 6.0625 11.7812C6.15625 11.7396 6.24219 11.7083 6.32031 11.6875C6.45573 11.6458 6.58854 11.6094 6.71875 11.5781C6.85417 11.5469 6.98958 11.5312 7.125 11.5312C7.28125 11.5312 7.4349 11.5469 7.58594 11.5781C7.74219 11.6042 7.89844 11.6172 8.05469 11.6172C8.22135 11.6172 8.38542 11.6016 8.54688 11.5703C8.71354 11.5391 8.88021 11.5234 9.04688 11.5234C9.15625 11.5234 9.26042 11.5312 9.35938 11.5469C9.45833 11.5625 9.54688 11.5911 9.625 11.6328C9.70833 11.6693 9.77865 11.7266 9.83594 11.8047C9.89323 11.8776 9.9349 11.9714 9.96094 12.0859C9.98698 12.2057 9.99219 12.3021 9.97656 12.375C9.96094 12.4479 9.96094 12.5052 9.97656 12.5469C9.90365 12.7344 9.80469 12.8698 9.67969 12.9531C9.5599 13.0365 9.42969 13.0964 9.28906 13.1328C9.14844 13.1693 9.00521 13.2005 8.85938 13.2266C8.71354 13.2474 8.58333 13.2917 8.46875 13.3594C8.35417 13.4271 8.25781 13.5339 8.17969 13.6797C8.10677 13.8255 8.07031 14.0365 8.07031 14.3125C7.9974 14.3594 7.92188 14.4245 7.84375 14.5078C7.76562 14.5859 7.6901 14.6719 7.61719 14.7656C7.54948 14.8594 7.48438 14.9557 7.42188 15.0547C7.36458 15.1484 7.32031 15.2344 7.28906 15.3125C7.34635 15.3333 7.3776 15.3646 7.38281 15.4062C7.34115 15.4792 7.30729 15.5573 7.28125 15.6406C7.25521 15.724 7.22135 15.8021 7.17969 15.875C7.14844 15.9323 7.11458 15.9766 7.07812 16.0078C7.04688 16.0339 7.01562 16.0651 6.98438 16.1016C6.95833 16.1328 6.9349 16.1771 6.91406 16.2344C6.89844 16.2865 6.89062 16.3646 6.89062 16.4688C6.89062 16.5156 6.88542 16.5625 6.875 16.6094C6.86458 16.651 6.83594 16.6901 6.78906 16.7266C6.65885 16.8307 6.55208 16.9635 6.46875 17.125C6.39062 17.2812 6.32812 17.4505 6.28125 17.6328C6.23958 17.8099 6.21094 17.9922 6.19531 18.1797C6.17969 18.362 6.17188 18.5312 6.17188 18.6875C6.17188 18.8281 6.19271 18.9661 6.23438 19.1016C6.28125 19.237 6.30469 19.375 6.30469 19.5156C6.30469 19.6562 6.29427 19.7995 6.27344 19.9453C6.2526 20.0859 6.24219 20.2266 6.24219 20.3672C6.24219 20.4401 6.2474 20.5104 6.25781 20.5781C6.26823 20.6406 6.27344 20.7057 6.27344 20.7734C6.27344 20.8464 6.27083 20.9062 6.26562 20.9531C6.26562 21 6.26562 21.0417 6.26562 21.0781C6.26562 21.1354 6.27865 21.1849 6.30469 21.2266C6.33073 21.2682 6.38802 21.3411 6.47656 21.4453C6.4974 21.4714 6.52604 21.513 6.5625 21.5703C6.60417 21.6276 6.64062 21.6562 6.67188 21.6562C6.76042 21.6562 6.84635 21.6458 6.92969 21.625C7.01823 21.599 7.10417 21.5729 7.1875 21.5469C7.27604 21.5156 7.36198 21.4896 7.44531 21.4688C7.53385 21.4427 7.625 21.4297 7.71875 21.4297C7.72917 21.4297 7.75781 21.4349 7.80469 21.4453C7.85677 21.4557 7.91146 21.4688 7.96875 21.4844C8.03125 21.5 8.09115 21.5156 8.14844 21.5312C8.21094 21.5417 8.26042 21.5495 8.29688 21.5547C8.31771 21.5911 8.33594 21.6276 8.35156 21.6641C8.3724 21.6953 8.39062 21.7318 8.40625 21.7734C8.45312 21.7943 8.50521 21.8177 8.5625 21.8438C8.625 21.8646 8.68229 21.8932 8.73438 21.9297C8.78646 21.9609 8.83073 22 8.86719 22.0469C8.90365 22.0938 8.92188 22.1484 8.92188 22.2109C8.92188 22.2891 8.90885 22.3672 8.88281 22.4453C8.86198 22.5182 8.85156 22.5938 8.85156 22.6719C8.85156 22.7396 8.79167 22.7917 8.67188 22.8281C8.55208 22.8646 8.41406 22.8932 8.25781 22.9141C8.10156 22.9297 7.95052 22.9401 7.80469 22.9453C7.65885 22.9505 7.5599 22.9531 7.50781 22.9531C7.15365 22.9531 6.80208 22.9401 6.45312 22.9141C6.10938 22.888 5.76042 22.875 5.40625 22.875C5.18229 22.875 4.96094 22.8958 4.74219 22.9375C4.52865 22.974 4.3125 22.9922 4.09375 22.9922C3.97396 22.9922 3.85677 22.9766 3.74219 22.9453C3.6276 22.9141 3.51042 22.8984 3.39062 22.8984C3.25521 22.8984 3.1224 22.9219 2.99219 22.9688C2.86719 23.0104 2.73698 23.0312 2.60156 23.0312C2.52344 23.0312 2.45312 23.0208 2.39062 23C2.39062 22.9323 2.375 22.8698 2.34375 22.8125C2.31771 22.7552 2.28646 22.7005 2.25 22.6484C2.21875 22.5911 2.1875 22.5339 2.15625 22.4766C2.13021 22.4193 2.11719 22.3568 2.11719 22.2891C2.11719 22.1641 2.17188 22.0625 2.28125 21.9844C2.39583 21.901 2.53906 21.8359 2.71094 21.7891C2.88281 21.737 3.07292 21.6979 3.28125 21.6719C3.49479 21.6458 3.70312 21.6276 3.90625 21.6172C4.10938 21.6016 4.29427 21.5911 4.46094 21.5859C4.6276 21.5807 4.75521 21.5703 4.84375 21.5547C4.89583 21.4557 4.9375 21.3333 4.96875 21.1875C5 21.0417 5.02344 20.8854 5.03906 20.7188C5.0599 20.5469 5.07292 20.3698 5.07812 20.1875C5.08333 20.0052 5.08594 19.8255 5.08594 19.6484C5.08594 19.4089 5.08854 19.1875 5.09375 18.9844C5.09896 18.776 5.09375 18.5781 5.07812 18.3906C5.06771 18.2031 5.04427 18.0234 5.00781 17.8516C4.97656 17.6745 4.92188 17.4974 4.84375 17.3203C4.77604 17.1693 4.6849 17.0365 4.57031 16.9219C4.46094 16.8073 4.36458 16.6797 4.28125 16.5391C4.19271 16.388 4.1224 16.2292 4.07031 16.0625C4.01823 15.8906 3.94792 15.7266 3.85938 15.5703C3.67708 15.2422 3.50781 14.9115 3.35156 14.5781C3.20052 14.2396 3.0651 13.8906 2.94531 13.5312C2.8724 13.5208 2.81771 13.5026 2.78125 13.4766C2.74479 13.4505 2.71354 13.4219 2.6875 13.3906C2.66667 13.3594 2.64323 13.3281 2.61719 13.2969C2.59115 13.2604 2.55208 13.2292 2.5 13.2031C2.4375 13.1719 2.34896 13.1484 2.23438 13.1328C2.11979 13.112 1.99479 13.0938 1.85938 13.0781C1.72396 13.0573 1.58594 13.0339 1.44531 13.0078C1.3099 12.9818 1.1849 12.9505 1.07031 12.9141C0.955729 12.8724 0.861979 12.8203 0.789062 12.7578C0.716146 12.6901 0.679688 12.6068 0.679688 12.5078C0.679688 12.3984 0.716146 12.2891 0.789062 12.1797C0.861979 12.0703 0.934896 11.9766 1.00781 11.8984C1.09115 11.8099 1.20052 11.7396 1.33594 11.6875C1.47656 11.6354 1.6224 11.5964 1.77344 11.5703C1.92969 11.5391 2.08594 11.5208 2.24219 11.5156C2.40365 11.5052 2.54948 11.5 2.67969 11.5H2.84375L3.34375 11.5078C3.47917 11.5078 3.60677 11.5208 3.72656 11.5469C3.84635 11.5677 3.96354 11.5938 4.07812 11.625C4.19271 11.6562 4.30729 11.6901 4.42188 11.7266C4.54167 11.7578 4.66927 11.7839 4.80469 11.8047C4.90365 11.8099 4.98438 11.8594 5.04688 11.9531C5.10938 12.0417 5.15104 12.1432 5.17188 12.2578C5.19271 12.3724 5.19271 12.4844 5.17188 12.5938C5.15625 12.7031 5.11719 12.7812 5.05469 12.8281ZM21.5609 21.7656C21.5609 21.8125 21.5583 21.875 21.5531 21.9531C21.5479 22.0312 21.5219 22.0833 21.475 22.1094C21.4229 22.1354 21.3891 22.1797 21.3734 22.2422C21.363 22.3047 21.3578 22.3672 21.3578 22.4297C21.3578 22.4922 21.3552 22.5495 21.35 22.6016C21.3448 22.6484 21.324 22.6719 21.2875 22.6719C21.2615 22.6719 21.2406 22.6667 21.225 22.6562C21.2094 22.6406 21.1885 22.6328 21.1625 22.6328C21.1365 22.6328 21.1104 22.6458 21.0844 22.6719C21.0583 22.6979 21.0453 22.724 21.0453 22.75C21.0453 22.776 21.0531 22.7969 21.0688 22.8125C21.0896 22.8229 21.1 22.8411 21.1 22.8672C21.1 22.888 21.0609 22.9141 20.9828 22.9453C20.9047 22.9714 20.8161 22.9974 20.7172 23.0234C20.6182 23.0547 20.5219 23.0781 20.4281 23.0938C20.3344 23.1146 20.2719 23.125 20.2406 23.125C20.0531 23.125 19.8656 23.0911 19.6781 23.0234C19.4906 22.9557 19.3083 22.8932 19.1313 22.8359C18.9177 22.763 18.7589 22.6432 18.6547 22.4766C18.5557 22.3099 18.4828 22.1224 18.4359 21.9141C18.3891 21.7057 18.3526 21.4922 18.3266 21.2734C18.3057 21.0547 18.2641 20.8594 18.2016 20.6875C18.1755 20.6094 18.1625 20.5443 18.1625 20.4922C18.1625 20.4401 18.1677 20.3984 18.1781 20.3672C18.1938 20.3307 18.2094 20.3021 18.225 20.2812C18.2458 20.2552 18.2615 20.2344 18.2719 20.2188C18.2875 20.1979 18.2953 20.1771 18.2953 20.1562C18.2953 20.0938 18.2771 20.0312 18.2406 19.9688C18.2042 19.9062 18.1859 19.8229 18.1859 19.7188C18.1859 19.6615 18.1859 19.6068 18.1859 19.5547C18.1911 19.4974 18.1938 19.4401 18.1938 19.3828C18.1938 19.1901 18.1755 19.0312 18.1391 18.9062C18.1078 18.7812 18.0609 18.6667 17.9984 18.5625C17.9411 18.4583 17.8708 18.3542 17.7875 18.25C17.7094 18.1458 17.6208 18.0208 17.5219 17.875C17.475 17.8854 17.4255 17.8906 17.3734 17.8906C17.3266 17.8906 17.2771 17.8906 17.225 17.8906C17.1208 17.8906 17.0167 17.8854 16.9125 17.875C16.8135 17.8646 16.712 17.8594 16.6078 17.8594C16.4984 17.8594 16.3865 17.8698 16.2719 17.8906C16.1625 17.9115 16.0505 17.9219 15.9359 17.9219C15.863 17.9219 15.7901 17.9115 15.7172 17.8906C15.6443 17.8646 15.5714 17.8516 15.4984 17.8516C15.4099 17.8516 15.3214 17.8698 15.2328 17.9062C15.1443 17.9375 15.0635 17.9844 14.9906 18.0469C14.9177 18.1042 14.8578 18.1745 14.8109 18.2578C14.7693 18.3359 14.7484 18.4219 14.7484 18.5156V18.7656C14.7484 19.2188 14.7094 19.6641 14.6313 20.1016C14.6208 20.1693 14.6104 20.237 14.6 20.3047C14.5896 20.3672 14.5844 20.4349 14.5844 20.5078C14.5844 20.7214 14.626 20.8932 14.7094 21.0234C14.7979 21.1536 14.9047 21.2604 15.0297 21.3438C15.1547 21.4219 15.2927 21.487 15.4438 21.5391C15.5948 21.5911 15.7328 21.6458 15.8578 21.7031C15.9828 21.7552 16.087 21.8203 16.1703 21.8984C16.2589 21.9766 16.3031 22.0833 16.3031 22.2188C16.3031 22.2708 16.2927 22.3203 16.2719 22.3672C16.2563 22.4089 16.2354 22.4505 16.2094 22.4922C16.1417 22.6016 16.0766 22.6849 16.0141 22.7422C15.9568 22.7943 15.8917 22.8359 15.8188 22.8672C15.751 22.8984 15.6755 22.9219 15.5922 22.9375C15.5089 22.9531 15.4099 22.974 15.2953 23C15.2068 23.0208 15.113 23.0339 15.0141 23.0391C14.9203 23.0495 14.8266 23.0547 14.7328 23.0547C14.587 23.0547 14.4438 23.0365 14.3031 23C14.1625 22.9688 14.0193 22.9531 13.8734 22.9531C13.7641 22.9531 13.6521 22.9635 13.5375 22.9844C13.4281 23 13.3188 23.0182 13.2094 23.0391C13.1 23.0651 12.9906 23.0859 12.8813 23.1016C12.7719 23.1224 12.6625 23.1328 12.5531 23.1328C12.4802 23.1328 12.3995 23.125 12.3109 23.1094C12.2276 23.0938 12.1495 23.0651 12.0766 23.0234C12.0036 22.987 11.9411 22.9375 11.8891 22.875C11.8422 22.8125 11.8188 22.737 11.8188 22.6484C11.8188 22.5755 11.837 22.5104 11.8734 22.4531C11.9099 22.3958 11.9568 22.3464 12.0141 22.3047C12.0766 22.263 12.1417 22.2292 12.2094 22.2031C12.2771 22.1771 12.3422 22.1615 12.4047 22.1562C12.462 22.151 12.5089 22.1484 12.5453 22.1484C12.587 22.1484 12.6208 22.1432 12.6469 22.1328C12.6781 22.1224 12.7094 22.1068 12.7406 22.0859C12.7719 22.0651 12.8083 22.0339 12.85 21.9922C12.876 21.9661 12.8995 21.9453 12.9203 21.9297C12.9464 21.9141 12.9776 21.9062 13.0141 21.9062C13.0401 21.9062 13.0661 21.9089 13.0922 21.9141C13.1182 21.9193 13.1443 21.9219 13.1703 21.9219C13.212 21.9219 13.2536 21.9089 13.2953 21.8828C13.4047 21.8203 13.4828 21.7396 13.5297 21.6406C13.5766 21.5417 13.6078 21.4349 13.6234 21.3203C13.6391 21.2005 13.6469 21.0781 13.6469 20.9531C13.6521 20.8281 13.6677 20.7135 13.6938 20.6094C13.7198 20.4948 13.7328 20.388 13.7328 20.2891C13.7328 20.1068 13.7094 19.9271 13.6625 19.75C13.6208 19.5729 13.6 19.3932 13.6 19.2109C13.6 18.9922 13.6156 18.7734 13.6469 18.5547C13.6781 18.3359 13.6938 18.1172 13.6938 17.8984C13.6938 17.8411 13.6911 17.7865 13.6859 17.7344C13.6859 17.6823 13.6859 17.6276 13.6859 17.5703C13.6859 17.1953 13.7094 16.8255 13.7563 16.4609C13.8031 16.0964 13.8266 15.7266 13.8266 15.3516C13.8266 15.2474 13.824 15.1458 13.8188 15.0469C13.8135 14.9479 13.8057 14.8464 13.7953 14.7422C13.7849 14.6589 13.7745 14.5573 13.7641 14.4375C13.7536 14.3125 13.738 14.1849 13.7172 14.0547C13.6964 13.9245 13.6677 13.7943 13.6313 13.6641C13.6 13.5339 13.5531 13.4193 13.4906 13.3203C13.4333 13.2161 13.3604 13.1328 13.2719 13.0703C13.1885 13.0026 13.087 12.9688 12.9672 12.9688C12.9411 12.9688 12.9125 12.9714 12.8813 12.9766C12.8552 12.9818 12.8292 12.9844 12.8031 12.9844C12.7458 12.9844 12.699 12.9688 12.6625 12.9375C12.626 12.901 12.5974 12.8594 12.5766 12.8125C12.5557 12.7604 12.5401 12.7057 12.5297 12.6484C12.5245 12.5911 12.5219 12.5417 12.5219 12.5C12.5219 12.3229 12.5661 12.1927 12.6547 12.1094C12.7484 12.026 12.8604 11.9688 12.9906 11.9375C13.126 11.9062 13.2693 11.8932 13.4203 11.8984C13.5766 11.8984 13.7146 11.8932 13.8344 11.8828C13.9698 11.8724 14.1026 11.849 14.2328 11.8125C14.3682 11.776 14.5063 11.7578 14.6469 11.7578C14.85 11.7578 15.0505 11.7839 15.2484 11.8359C15.4464 11.888 15.6469 11.9141 15.85 11.9141C16.0167 11.9141 16.1781 11.901 16.3344 11.875C16.4906 11.8438 16.6469 11.8021 16.8031 11.75C16.8813 11.724 16.9516 11.7109 17.0141 11.7109C17.2172 11.7109 17.4177 11.737 17.6156 11.7891C17.8135 11.8411 18.0115 11.8724 18.2094 11.8828C18.3448 11.8932 18.4854 11.9193 18.6313 11.9609C18.7771 11.9974 18.9125 12.0521 19.0375 12.125C19.1677 12.1927 19.2797 12.2812 19.3734 12.3906C19.4672 12.5 19.5271 12.6276 19.5531 12.7734C19.5688 12.862 19.6052 12.9479 19.6625 13.0312C19.7198 13.1094 19.7797 13.1823 19.8422 13.25C19.9099 13.3125 19.9672 13.3724 20.0141 13.4297C20.0661 13.4818 20.0922 13.526 20.0922 13.5625C20.0922 13.599 20.074 13.6276 20.0375 13.6484C20.0063 13.6641 19.9906 13.6927 19.9906 13.7344C19.9906 13.7604 20.0063 13.7891 20.0375 13.8203C20.074 13.8516 20.113 13.888 20.1547 13.9297C20.1964 13.9714 20.2328 14.0182 20.2641 14.0703C20.3005 14.1172 20.3188 14.1693 20.3188 14.2266C20.3188 14.3047 20.2927 14.375 20.2406 14.4375C20.1938 14.4948 20.1703 14.5625 20.1703 14.6406L20.1859 14.6641L20.2953 14.6328L20.3109 14.6484C20.3318 14.7318 20.3396 14.8203 20.3344 14.9141C20.3344 15.0026 20.3344 15.0833 20.3344 15.1562C20.3344 15.2552 20.3318 15.3646 20.3266 15.4844C20.3214 15.6042 20.3083 15.7214 20.2875 15.8359C20.2667 15.9505 20.2354 16.0573 20.1938 16.1562C20.1521 16.2552 20.0922 16.3333 20.0141 16.3906C19.9672 16.4271 19.9177 16.4557 19.8656 16.4766C19.8188 16.4922 19.7719 16.513 19.725 16.5391C19.6781 16.5599 19.6365 16.5885 19.6 16.625C19.5635 16.6615 19.5349 16.7109 19.5141 16.7734C19.488 16.862 19.4438 16.9453 19.3813 17.0234C19.3188 17.1016 19.2536 17.1797 19.1859 17.2578C19.1234 17.3307 19.0661 17.4062 19.0141 17.4844C18.9672 17.5625 18.9438 17.6484 18.9438 17.7422C18.9438 17.8932 18.9776 18.0339 19.0453 18.1641C19.1182 18.2943 19.1833 18.4271 19.2406 18.5625C19.2979 18.7031 19.3396 18.8464 19.3656 18.9922C19.3917 19.1328 19.4099 19.276 19.4203 19.4219C19.4359 19.5677 19.4464 19.7135 19.4516 19.8594C19.462 20.0052 19.4776 20.151 19.4984 20.2969C19.5089 20.3594 19.5323 20.4635 19.5688 20.6094C19.6104 20.75 19.6599 20.8932 19.7172 21.0391C19.7745 21.1849 19.8396 21.3125 19.9125 21.4219C19.9854 21.5312 20.0609 21.5859 20.1391 21.5859C20.2068 21.5859 20.2615 21.5495 20.3031 21.4766C20.3448 21.4036 20.3839 21.3203 20.4203 21.2266C20.462 21.1328 20.5063 21.0417 20.5531 20.9531C20.6052 20.8646 20.6729 20.8047 20.7563 20.7734C20.9177 20.7891 21.0505 20.8203 21.1547 20.8672C21.2641 20.9141 21.3474 20.9792 21.4047 21.0625C21.462 21.1406 21.501 21.2396 21.5219 21.3594C21.5479 21.474 21.5609 21.6094 21.5609 21.7656ZM19.225 14.5781C19.225 14.5052 19.2094 14.4219 19.1781 14.3281C19.1469 14.2292 19.1078 14.1302 19.0609 14.0312C19.0141 13.9323 18.962 13.8385 18.9047 13.75C18.8526 13.6615 18.8005 13.5885 18.7484 13.5312C18.6391 13.5312 18.5661 13.5234 18.5297 13.5078C18.4932 13.4922 18.4698 13.474 18.4594 13.4531C18.449 13.4271 18.4359 13.3984 18.4203 13.3672C18.4099 13.3359 18.3734 13.3047 18.3109 13.2734C18.1286 13.1849 17.9646 13.1172 17.8188 13.0703C17.6729 13.0234 17.4984 13 17.2953 13C17.238 13 17.1807 13.0156 17.1234 13.0469C17.0714 13.0781 17.0245 13.0938 16.9828 13.0938C16.863 13.0938 16.7458 13.0807 16.6313 13.0547C16.5167 13.0234 16.3995 13.0078 16.2797 13.0078C16.1078 13.0078 15.9307 13.0286 15.7484 13.0703C15.6286 13.1016 15.5089 13.1302 15.3891 13.1562C15.2693 13.1823 15.1625 13.2214 15.0688 13.2734C14.975 13.3255 14.8969 13.3958 14.8344 13.4844C14.7771 13.5729 14.7484 13.6953 14.7484 13.8516C14.7484 14.013 14.7641 14.1719 14.7953 14.3281C14.8318 14.4844 14.85 14.6432 14.85 14.8047C14.85 14.8828 14.837 14.9583 14.8109 15.0312C14.7901 15.1042 14.7667 15.1771 14.7406 15.25C14.7146 15.3177 14.6885 15.388 14.6625 15.4609C14.6417 15.5339 14.6313 15.6094 14.6313 15.6875C14.6313 15.7812 14.6391 15.8776 14.6547 15.9766C14.6755 16.0703 14.7094 16.1562 14.7563 16.2344C14.8031 16.3073 14.863 16.3672 14.9359 16.4141C15.0141 16.4609 15.1104 16.4844 15.225 16.4844C15.3344 16.4844 15.4385 16.4635 15.5375 16.4219C15.6365 16.375 15.7406 16.3516 15.85 16.3516C15.9073 16.3516 15.962 16.3672 16.0141 16.3984C16.0661 16.4245 16.1182 16.4531 16.1703 16.4844C16.2224 16.5156 16.2771 16.5469 16.3344 16.5781C16.3917 16.6042 16.4542 16.6172 16.5219 16.6172C16.574 16.6172 16.6234 16.612 16.6703 16.6016C16.7172 16.5859 16.7615 16.5677 16.8031 16.5469C17.001 16.4583 17.2094 16.3802 17.4281 16.3125C17.6521 16.2396 17.8734 16.2031 18.0922 16.2031C18.1495 16.2031 18.2172 16.1719 18.2953 16.1094C18.3734 16.0417 18.4542 15.9583 18.5375 15.8594C18.6208 15.7552 18.7042 15.6432 18.7875 15.5234C18.8708 15.3984 18.9438 15.276 19.0063 15.1562C19.074 15.0312 19.126 14.9193 19.1625 14.8203C19.2042 14.7161 19.225 14.6354 19.225 14.5781ZM31.8563 18.8281C31.8563 18.9323 31.851 19.0391 31.8406 19.1484C31.8354 19.2526 31.8198 19.3568 31.7938 19.4609C31.7729 19.5495 31.7443 19.6328 31.7078 19.7109C31.6766 19.7839 31.6557 19.8646 31.6453 19.9531C31.6349 20.0052 31.6245 20.0625 31.6141 20.125C31.6036 20.1823 31.5646 20.2109 31.4969 20.2109L31.4344 20.2031C31.351 20.2031 31.2885 20.237 31.2469 20.3047C31.2052 20.3672 31.1714 20.4453 31.1453 20.5391C31.1245 20.6276 31.1063 20.7188 31.0906 20.8125C31.0802 20.9062 31.0672 20.9818 31.0516 21.0391C31.0359 21.0964 31.0255 21.1484 31.0203 21.1953C31.0203 21.237 31.0177 21.276 31.0125 21.3125C31.0125 21.3438 31.0021 21.3776 30.9813 21.4141C30.9604 21.4505 30.924 21.4896 30.8719 21.5312C30.7885 21.5938 30.7078 21.6536 30.6297 21.7109C30.5516 21.7682 30.4813 21.8359 30.4188 21.9141C30.3719 21.9714 30.3406 22.0208 30.325 22.0625C30.3094 22.1042 30.2938 22.1432 30.2781 22.1797C30.2625 22.2161 30.2365 22.25 30.2 22.2812C30.1688 22.3073 30.1141 22.3333 30.0359 22.3594C29.9161 22.401 29.8016 22.4479 29.6922 22.5C29.5828 22.5521 29.4708 22.599 29.3563 22.6406C29.2208 22.6927 29.0932 22.7526 28.9734 22.8203C28.8536 22.8828 28.7313 22.9427 28.6063 23C28.4813 23.0573 28.351 23.1042 28.2156 23.1406C28.0854 23.1823 27.9448 23.2031 27.7938 23.2031C27.6583 23.2031 27.5229 23.1823 27.3875 23.1406C27.2573 23.099 27.1349 23.0417 27.0203 22.9688C26.9109 22.9583 26.8276 22.9193 26.7703 22.8516C26.713 22.7839 26.6661 22.7031 26.6297 22.6094C26.5984 22.5365 26.5672 22.4844 26.5359 22.4531C26.5099 22.4219 26.4786 22.401 26.4422 22.3906C26.4109 22.375 26.3745 22.362 26.3328 22.3516C26.2911 22.3411 26.2417 22.3177 26.1844 22.2812C25.95 22.1302 25.7365 21.9427 25.5438 21.7188C25.351 21.4896 25.1714 21.2604 25.0047 21.0312C24.9682 20.9792 24.9396 20.9193 24.9188 20.8516C24.9031 20.7786 24.8875 20.7083 24.8719 20.6406C24.8563 20.5677 24.838 20.5 24.8172 20.4375C24.8016 20.3698 24.7755 20.3177 24.7391 20.2812C24.6714 20.2135 24.6115 20.1771 24.5594 20.1719C24.5073 20.1667 24.463 20.1562 24.4266 20.1406C24.3953 20.1198 24.3693 20.0755 24.3484 20.0078C24.3328 19.9349 24.325 19.8021 24.325 19.6094C24.325 19.4896 24.3146 19.3646 24.2938 19.2344C24.2729 19.1042 24.2469 18.9714 24.2156 18.8359C24.1896 18.6953 24.1661 18.5547 24.1453 18.4141C24.1245 18.2682 24.1141 18.125 24.1141 17.9844C24.1141 17.8333 24.1219 17.6823 24.1375 17.5312C24.1583 17.3802 24.1818 17.2292 24.2078 17.0781C24.2339 16.9271 24.2599 16.7786 24.2859 16.6328C24.312 16.4818 24.3302 16.3307 24.3406 16.1797C24.351 16.0391 24.3563 15.8958 24.3563 15.75C24.3615 15.6042 24.3667 15.4583 24.3719 15.3125C24.3823 15.1667 24.3979 15.0234 24.4188 14.8828C24.4396 14.7422 24.476 14.6042 24.5281 14.4688C24.5802 14.3229 24.6453 14.1849 24.7234 14.0547C24.8068 13.9245 24.8875 13.7943 24.9656 13.6641C25.0438 13.5339 25.1167 13.401 25.1844 13.2656C25.2521 13.1302 25.3042 12.9844 25.3406 12.8281C25.3615 12.7292 25.4266 12.638 25.5359 12.5547C25.6453 12.4661 25.7807 12.3854 25.9422 12.3125C26.1036 12.2344 26.2781 12.1667 26.4656 12.1094C26.6583 12.0469 26.8484 11.9948 27.0359 11.9531C27.2234 11.9062 27.3953 11.8724 27.5516 11.8516C27.713 11.8255 27.8432 11.8125 27.9422 11.8125C28.2026 11.8125 28.4474 11.8464 28.6766 11.9141C28.9057 11.9766 29.1375 12.0599 29.3719 12.1641C29.476 12.2109 29.588 12.25 29.7078 12.2812C29.8328 12.3073 29.95 12.3203 30.0594 12.3203C30.1688 12.3203 30.2495 12.3021 30.3016 12.2656C30.3589 12.224 30.4031 12.1771 30.4344 12.125C30.4656 12.0677 30.4917 12.0156 30.5125 11.9688C30.5333 11.9167 30.5646 11.8776 30.6063 11.8516L30.5828 11.8594C30.5932 11.849 30.6115 11.8438 30.6375 11.8438C30.6635 11.8385 30.6922 11.8359 30.7234 11.8359C30.7651 11.8411 30.8146 11.8516 30.8719 11.8672C30.9344 11.8828 30.9969 11.901 31.0594 11.9219C31.1219 11.9427 31.1792 11.9661 31.2313 11.9922C31.2885 12.013 31.3302 12.0339 31.3563 12.0547C31.3719 12.0651 31.3979 12.099 31.4344 12.1562C31.4708 12.2135 31.5073 12.276 31.5438 12.3438C31.5854 12.4115 31.6193 12.474 31.6453 12.5312C31.6766 12.5885 31.6922 12.625 31.6922 12.6406C31.6922 12.7708 31.7104 12.8932 31.7469 13.0078C31.7885 13.1224 31.8094 13.2448 31.8094 13.375C31.8094 13.5104 31.7885 13.6432 31.7469 13.7734C31.7104 13.9036 31.6922 14.0365 31.6922 14.1719C31.6922 14.3385 31.6948 14.5026 31.7 14.6641C31.7104 14.8203 31.7156 14.9818 31.7156 15.1484C31.7156 15.2995 31.7078 15.4505 31.6922 15.6016C31.6818 15.7474 31.6609 15.8932 31.6297 16.0391C31.6193 16.0807 31.6089 16.1302 31.5984 16.1875C31.588 16.2448 31.5724 16.2995 31.5516 16.3516C31.5359 16.4036 31.5125 16.4479 31.4813 16.4844C31.4552 16.5208 31.4188 16.5391 31.3719 16.5391C31.325 16.5391 31.2833 16.5312 31.2469 16.5156C31.2208 16.5208 31.1974 16.526 31.1766 16.5312C31.1557 16.5312 31.1323 16.5312 31.1063 16.5312C31.0594 16.5312 31.0307 16.5234 31.0203 16.5078C31.0099 16.4922 31.0047 16.474 31.0047 16.4531C31.0047 16.4271 30.9995 16.401 30.9891 16.375C30.9839 16.3438 30.9578 16.3151 30.9109 16.2891C30.8797 16.2682 30.838 16.2552 30.7859 16.25C30.7339 16.2448 30.6818 16.2396 30.6297 16.2344C30.5828 16.224 30.5411 16.2083 30.5047 16.1875C30.4682 16.1615 30.45 16.1224 30.45 16.0703C30.45 16.013 30.4604 15.9844 30.4813 15.9844C30.5073 15.9792 30.5359 15.987 30.5672 16.0078C30.6036 16.0286 30.6427 16.0495 30.6844 16.0703C30.726 16.0859 30.7651 16.0859 30.8016 16.0703C30.7286 15.987 30.6635 15.901 30.6063 15.8125C30.5542 15.7188 30.4995 15.625 30.4422 15.5312C30.3901 15.4375 30.3354 15.3438 30.2781 15.25C30.2208 15.1562 30.1557 15.0703 30.0828 14.9922C30.0203 14.9245 29.9682 14.8464 29.9266 14.7578C29.8849 14.6693 29.8432 14.5807 29.8016 14.4922C29.7651 14.3984 29.7234 14.3125 29.6766 14.2344C29.6349 14.151 29.5802 14.0833 29.5125 14.0312C29.2729 13.849 29.0073 13.6901 28.7156 13.5547C28.4292 13.4141 28.1297 13.3438 27.8172 13.3438C27.5984 13.3438 27.3953 13.3776 27.2078 13.4453C27.0255 13.5078 26.8432 13.5938 26.6609 13.7031C26.588 13.7448 26.5177 13.7812 26.45 13.8125C26.3875 13.8438 26.325 13.8802 26.2625 13.9219C26.2052 13.9583 26.1531 14.0052 26.1063 14.0625C26.0646 14.1146 26.0333 14.1875 26.0125 14.2812C25.9865 14.375 25.9734 14.4714 25.9734 14.5703C25.9786 14.6693 25.9552 14.7604 25.9031 14.8438C25.8771 14.8854 25.8354 14.9193 25.7781 14.9453C25.726 14.9714 25.6922 15.0104 25.6766 15.0625C25.6349 15.1823 25.6089 15.3073 25.5984 15.4375C25.5932 15.5677 25.588 15.7005 25.5828 15.8359C25.5828 15.9714 25.5802 16.1094 25.575 16.25C25.5698 16.3854 25.549 16.5156 25.5125 16.6406C25.4813 16.7448 25.4578 16.849 25.4422 16.9531C25.4318 17.0573 25.4266 17.1615 25.4266 17.2656C25.4266 17.4635 25.4318 17.6589 25.4422 17.8516C25.4578 18.0391 25.4656 18.2292 25.4656 18.4219C25.4656 18.6562 25.476 18.8854 25.4969 19.1094C25.5229 19.3333 25.5672 19.5573 25.6297 19.7812C25.6766 19.9479 25.7417 20.1094 25.825 20.2656C25.9083 20.4167 25.9708 20.5755 26.0125 20.7422C26.0333 20.8307 26.0698 20.9245 26.1219 21.0234C26.1792 21.1224 26.2443 21.2135 26.3172 21.2969C26.3953 21.3802 26.4813 21.4505 26.575 21.5078C26.6688 21.5599 26.7651 21.5859 26.8641 21.5859C26.937 21.5859 27.0073 21.5781 27.075 21.5625C27.1427 21.5417 27.213 21.5312 27.2859 21.5312C27.3641 21.5312 27.4422 21.5391 27.5203 21.5547C27.5984 21.5651 27.6766 21.5703 27.7547 21.5703C27.8953 21.5703 28.0411 21.5521 28.1922 21.5156C28.3484 21.4792 28.4786 21.4062 28.5828 21.2969C28.6557 21.2188 28.7391 21.1641 28.8328 21.1328C28.9266 21.1016 29.0203 21.0755 29.1141 21.0547C29.213 21.0339 29.3068 21.0078 29.3953 20.9766C29.4839 20.9401 29.562 20.8776 29.6297 20.7891C29.6714 20.7318 29.713 20.6432 29.7547 20.5234C29.8016 20.4036 29.8484 20.2786 29.8953 20.1484C29.9422 20.0182 29.9891 19.901 30.0359 19.7969C30.088 19.6875 30.1401 19.6198 30.1922 19.5938C30.2391 19.5677 30.2677 19.5026 30.2781 19.3984C30.2938 19.2891 30.3016 19.1615 30.3016 19.0156V18.6562C30.3016 18.5521 30.3042 18.4505 30.3094 18.3516C30.3146 18.2526 30.325 18.1641 30.3406 18.0859C30.3615 18.0078 30.3901 17.9453 30.4266 17.8984C30.463 17.8516 30.5125 17.8281 30.575 17.8281C30.6323 17.8281 30.6766 17.849 30.7078 17.8906C30.7443 17.9271 30.7885 17.9453 30.8406 17.9453C30.8927 17.9453 30.9422 17.9297 30.9891 17.8984C31.0411 17.862 31.0958 17.8438 31.1531 17.8438C31.2313 17.8438 31.3016 17.8776 31.3641 17.9453C31.4318 18.013 31.4917 18.0885 31.5438 18.1719C31.601 18.2552 31.6453 18.3333 31.6766 18.4062C31.713 18.474 31.7391 18.5104 31.7547 18.5156C31.8068 18.526 31.8354 18.5703 31.8406 18.6484C31.851 18.7214 31.8563 18.7812 31.8563 18.8281Z" fill="#FF4500"/>
<defs>
<filter id="filter0_i_164_99" x="10.4888" y="0.604736" width="33.9683" height="26.2523" filterUnits="userSpaceOnUse" color-interpolation-filters="sRGB">
<feFlood flood-opacity="0" result="BackgroundImageFix"/>
<feBlend mode="normal" in="SourceGraphic" in2="BackgroundImageFix" result="shape"/>
<feColorMatrix in="SourceAlpha" type="matrix" values="0 0 0 0 0 0 0 0 0 0 0 0 0 0 0 0 0 0 127 0" result="hardAlpha"/>
<feOffset dy="6"/>
<feGaussianBlur stdDeviation="2"/>
<feComposite in2="hardAlpha" operator="arithmetic" k2="-1" k3="1"/>
<feColorMatrix type="matrix" values="0 0 0 0 0.74902 0 0 0 0 0.74902 0 0 0 0 0.74902 0 0 0 0.5 0"/>
<feBlend mode="normal" in2="shape" result="effect1_innerShadow_164_99"/>
</filter>
</defs>
</svg>
